<?xml version="1.0" encoding="UTF-8"?>
<svg width="57px" height="69px" viewBox="0 0 57 69" version="1.1" xmlns="http://www.w3.org/2000/svg" xmlns:xlink="http://www.w3.org/1999/xlink">
    <defs>
        <polygon id="path-1" points="0 0.012 56.539 0.012 56.539 53.814 0 53.814"></polygon>
        <polygon id="path-3" points="0 0.6554 7.1358 0.6554 7.1358 9 0 9"></polygon>
        <polygon id="path-5" points="0.3397 0.6554 7.4757 0.6554 7.4757 9 0.3397 9"></polygon>
        <polygon id="path-7" points="0.0474 0.7472 8.539 0.7472 8.539 8.9082 0.0474 8.9082"></polygon>
    </defs>
    <g id="LOGO-/-GOG.COM-/-VERTICAL" stroke="none" stroke-width="1" fill="none" fill-rule="evenodd">
        <g id="Group-3" >
            <mask id="mask-2" fill="white">
                <use xlink:href="#path-1"></use>
            </mask>
            <g id="Clip-2"></g>
            <path d="M50.335,25.837 C50.335,27.203 49.231,28.3 47.874,28.3 L37.316,28.3 L37.316,25.128 L46.212,25.128 L46.218,25.128 C46.743,25.128 47.165,24.7 47.165,24.178 L47.165,24.172 L47.165,13.698 L47.165,13.69 C47.165,13.167 46.743,12.743 46.218,12.743 L46.212,12.743 L41.444,12.743 L41.435,12.743 C40.917,12.743 40.494,13.167 40.494,13.69 L40.494,13.698 L40.494,18.457 L40.494,18.463 C40.494,18.987 40.917,19.412 41.435,19.412 L41.444,19.412 L45.254,19.412 L45.254,22.585 L39.78,22.585 C38.418,22.585 37.316,21.485 37.316,20.125 L37.316,12.03 C37.316,10.67 38.418,9.568 39.78,9.568 L47.874,9.568 C49.231,9.568 50.335,10.67 50.335,12.03 L50.335,25.837 Z M50.326,44.25 L47.198,44.25 L47.198,34.552 L45.011,34.552 L45,34.552 C44.482,34.552 44.069,34.97 44.069,35.486 L44.069,35.492 L44.069,44.25 L40.94,44.25 L40.94,34.552 L38.749,34.552 L38.742,34.552 C38.225,34.552 37.811,34.97 37.811,35.486 L37.811,35.492 L37.811,44.258 L34.684,44.258 L34.684,33.845 C34.684,32.512 35.767,31.426 37.109,31.426 L50.326,31.426 L50.326,44.25 Z M32.318,22.585 L24.22,22.585 C22.86,22.585 21.761,21.485 21.761,20.125 L21.761,12.03 C21.761,10.67 22.86,9.568 24.22,9.568 L32.318,9.568 C33.675,9.568 34.778,10.67 34.778,12.03 L34.778,20.125 C34.778,21.485 33.675,22.585 32.318,22.585 Z M32.178,41.824 C32.178,43.164 31.092,44.25 29.754,44.25 L21.777,44.25 C20.435,44.25 19.351,43.164 19.351,41.824 L19.351,33.845 C19.351,32.512 20.435,31.426 21.777,31.426 L29.754,31.426 C31.092,31.426 32.178,32.512 32.178,33.845 L32.178,41.824 Z M19.221,25.837 C19.221,27.203 18.118,28.3 16.759,28.3 L6.203,28.3 L6.203,25.128 L15.093,25.128 L15.103,25.128 C15.627,25.128 16.047,24.7 16.047,24.178 L16.047,24.172 L16.047,13.698 L16.047,13.69 C16.047,13.167 15.627,12.743 15.103,12.743 L15.093,12.743 L10.33,12.743 L10.319,12.743 C9.796,12.743 9.376,13.167 9.376,13.69 L9.376,13.698 L9.376,18.457 L9.376,18.463 C9.376,18.987 9.796,19.412 10.319,19.412 L10.33,19.412 L14.141,19.412 L14.141,22.585 L8.664,22.585 C7.302,22.585 6.203,21.485 6.203,20.125 L6.203,12.03 C6.203,10.67 7.302,9.568 8.664,9.568 L16.759,9.568 C18.118,9.568 19.221,10.67 19.221,12.03 L19.221,25.837 Z M16.847,34.552 L10.28,34.552 L10.27,34.552 C9.754,34.552 9.34,34.97 9.34,35.486 C9.34,35.486 9.342,35.486 9.342,35.492 L9.34,35.492 L9.34,40.186 L9.342,40.186 L9.34,40.19 C9.34,40.704 9.754,41.126 10.27,41.126 L10.28,41.126 L10.96,41.126 L16.847,41.126 L16.847,44.258 L8.64,44.258 L8.64,44.25 C7.296,44.25 6.21,43.164 6.21,41.824 L6.21,33.845 C6.21,32.512 7.296,31.426 8.64,31.426 L16.847,31.426 L16.847,34.552 Z M52.951,0.011 L3.587,0.011 C1.606,0.011 0,1.617 0,3.597 L0,50.228 C0,52.208 1.606,53.814 3.587,53.814 L52.951,53.814 C54.933,53.814 56.539,52.208 56.539,50.228 L56.539,3.597 C56.539,1.617 54.933,0.011 52.951,0.011 Z" id="Fill-1" fill="#000" mask="url(#mask-2)"></path>
        </g>
        <path d="M30.6612,12.7318 C31.1862,12.7318 31.5972,13.1558 31.5972,13.6788 L31.5972,13.6868 L31.5972,18.4458 L31.5972,18.4518 C31.5972,18.9758 31.1862,19.4008 30.6612,19.4008 L30.6502,19.4008 L25.8872,19.4008 L25.8802,19.4008 C25.3552,19.4008 24.9342,18.9758 24.9342,18.4518 L24.9342,18.4458 L24.9342,13.6868 L24.9342,13.6788 C24.9342,13.1558 25.3552,12.7318 25.8802,12.7318 L25.8872,12.7318 L30.6502,12.7318 L30.6612,12.7318" id="Fill-4" fill="#000"></path>
        <path d="M28.1226,34.5404 C28.6366,34.5404 29.0506,34.9584 29.0506,35.4754 L29.0506,35.4804 L29.0506,40.1744 C29.0506,40.6894 28.6366,41.1104 28.1226,41.1104 C28.1176,41.1104 28.1166,41.1054 28.1116,41.1054 L28.1116,41.1104 L23.4196,41.1104 L23.4196,41.1054 C23.4196,41.1054 23.4146,41.1104 23.4096,41.1104 C22.8936,41.1104 22.4796,40.6894 22.4796,40.1744 L22.4796,35.4804 L22.4796,35.4754 C22.4796,34.9584 22.8936,34.5404 23.4096,34.5404 L23.4196,34.5404 L28.1116,34.5404 L28.1226,34.5404" id="Fill-6" fill="#000"></path>
    </g>
</svg>